solid b'MESH-MESH-MESH-MESH-MESH-MESH-MESH-MESH-MESH-MESH-MESH-MESH-MESH-MESH-MESH-MESH'
facet normal 450.0 0.0 0.0
  outer loop
    vertex 30.0 0.0 15.0
    vertex 30.0 30.0 15.0
    vertex 30.0 30.0 30.0
  endloop
endfacet
facet normal 450.0 -0.0 0.0
  outer loop
    vertex 30.0 0.0 30.0
    vertex 30.0 0.0 15.0
    vertex 30.0 30.0 30.0
  endloop
endfacet
facet normal 0.0 -450.0 0.0
  outer loop
    vertex 15.0 0.0 -8.881784e-16
    vertex 0.0 0.0 30.0
    vertex 0.0 0.0 0.0
  endloop
endfacet
facet normal 0.0 -675.0 0.0
  outer loop
    vertex 15.0 0.0 -8.881784e-16
    vertex 30.0 0.0 15.0
    vertex 0.0 0.0 30.0
  endloop
endfacet
facet normal 0.0 -450.0 0.0
  outer loop
    vertex 30.0 0.0 15.0
    vertex 30.0 0.0 30.0
    vertex 0.0 0.0 30.0
  endloop
endfacet
facet normal 450.0 0.0 -450.0
  outer loop
    vertex 15.0 0.0 -8.881784e-16
    vertex 30.0 30.0 15.0
    vertex 30.0 0.0 15.0
  endloop
endfacet
facet normal 450.0 0.0 -450.0
  outer loop
    vertex 15.0 0.0 -8.881784e-16
    vertex 15.0 30.0 -8.881784e-16
    vertex 30.0 30.0 15.0
  endloop
endfacet
facet normal 0.0 0.0 900.0
  outer loop
    vertex 30.0 30.0 30.0
    vertex 0.0 30.0 30.0
    vertex 0.0 0.0 30.0
  endloop
endfacet
facet normal 0.0 0.0 900.0
  outer loop
    vertex 30.0 30.0 30.0
    vertex 0.0 0.0 30.0
    vertex 30.0 0.0 30.0
  endloop
endfacet
facet normal 0.0 450.0 0.0
  outer loop
    vertex 0.0 30.0 30.0
    vertex 15.0 30.0 -8.881784e-16
    vertex 0.0 30.0 0.0
  endloop
endfacet
facet normal 0.0 675.0 0.0
  outer loop
    vertex 30.0 30.0 15.0
    vertex 15.0 30.0 -8.881784e-16
    vertex 0.0 30.0 30.0
  endloop
endfacet
facet normal 0.0 450.0 0.0
  outer loop
    vertex 30.0 30.0 30.0
    vertex 30.0 30.0 15.0
    vertex 0.0 30.0 30.0
  endloop
endfacet
facet normal -2.6645353e-14 0.0 -450.0
  outer loop
    vertex 0.0 0.0 0.0
    vertex 0.0 30.0 0.0
    vertex 15.0 0.0 -8.881784e-16
  endloop
endfacet
facet normal -2.6645353e-14 0.0 -450.0
  outer loop
    vertex 0.0 30.0 0.0
    vertex 15.0 30.0 -8.881784e-16
    vertex 15.0 0.0 -8.881784e-16
  endloop
endfacet
facet normal -900.0 0.0 0.0
  outer loop
    vertex 0.0 0.0 0.0
    vertex 0.0 0.0 30.0
    vertex 0.0 30.0 0.0
  endloop
endfacet
facet normal -900.0 0.0 0.0
  outer loop
    vertex 0.0 30.0 0.0
    vertex 0.0 0.0 30.0
    vertex 0.0 30.0 30.0
  endloop
endfacet
facet normal -300.0 0.0 0.0
  outer loop
    vertex 0.0 0.0 10.0
    vertex 0.0 0.0 20.0
    vertex 0.0 30.0 10.0
  endloop
endfacet
facet normal -300.0 0.0 0.0
  outer loop
    vertex 0.0 30.0 10.0
    vertex 0.0 0.0 20.0
    vertex 0.0 30.0 20.0
  endloop
endfacet
facet normal 300.0 0.0 0.0
  outer loop
    vertex 10.0 0.0 20.0
    vertex 10.0 0.0 10.0
    vertex 10.0 30.0 10.0
  endloop
endfacet
facet normal 300.0 -0.0 0.0
  outer loop
    vertex 10.0 0.0 20.0
    vertex 10.0 30.0 10.0
    vertex 10.0 30.0 20.0
  endloop
endfacet
facet normal 0.0 -100.0 0.0
  outer loop
    vertex 10.0 0.0 10.0
    vertex 10.0 0.0 20.0
    vertex 0.0 0.0 10.0
  endloop
endfacet
facet normal 0.0 -100.0 0.0
  outer loop
    vertex 0.0 0.0 10.0
    vertex 10.0 0.0 20.0
    vertex 0.0 0.0 20.0
  endloop
endfacet
facet normal 0.0 100.0 0.0
  outer loop
    vertex 10.0 30.0 20.0
    vertex 10.0 30.0 10.0
    vertex 0.0 30.0 10.0
  endloop
endfacet
facet normal 0.0 100.0 0.0
  outer loop
    vertex 10.0 30.0 20.0
    vertex 0.0 30.0 10.0
    vertex 0.0 30.0 20.0
  endloop
endfacet
facet normal 0.0 0.0 -300.0
  outer loop
    vertex 0.0 30.0 10.0
    vertex 10.0 30.0 10.0
    vertex 0.0 0.0 10.0
  endloop
endfacet
facet normal 0.0 0.0 -300.0
  outer loop
    vertex 0.0 0.0 10.0
    vertex 10.0 30.0 10.0
    vertex 10.0 0.0 10.0
  endloop
endfacet
facet normal 0.0 0.0 300.0
  outer loop
    vertex 10.0 30.0 20.0
    vertex 0.0 30.0 20.0
    vertex 0.0 0.0 20.0
  endloop
endfacet
facet normal 0.0 0.0 300.0
  outer loop
    vertex 10.0 30.0 20.0
    vertex 0.0 0.0 20.0
    vertex 10.0 0.0 20.0
  endloop
endfacet
endsolid b'MESH-MESH-MESH-MESH-MESH-MESH-MESH-MESH-MESH-MESH-MESH-MESH-MESH-MESH-MESH-MESH'
